<svg xmlns="http://www.w3.org/2000/svg" xmlns:xlink="http://www.w3.org/1999/xlink" version="1.1"><metadata/><defs><font id="minecraftregular" horiz-adv-x="1228"><font-face ascent="1638" descent="-410" units-per-em="2048"/><glyph horiz-adv-x="0"/><glyph horiz-adv-x="682"/><glyph horiz-adv-x="819"/><glyph horiz-adv-x="819"/><glyph horiz-adv-x="819"/><glyph d="M0 0v205h205v-205h-205zM0 410v1024h205v-1024h-205z" horiz-adv-x="409" unicode="!"/><glyph d="M0 819v205h205v-205h-205zM205 1024v410h205v-410h-205zM410 819v205h204v-205h-204zM614 1024v410h205v-410h-205z" horiz-adv-x="1024" unicode="&quot;"/><glyph d="M0 410v204h205v205h-205v205h205v410h205v-410h204v410h205v-410h205v-205h-205v-205h205v-204h-205v-410h-205v410h-204v-410h-205v410h-205zM410 614h204v205h-204v-205z" unicode="#"/><glyph d="M0 205v205h819v-205h-205v-205h-204v205h-410zM0 819v205h205v-205h-205zM205 614v205h614v-205h-614zM205 1024v205h205v205h204v-205h410v-205h-819zM819 410v204h205v-204h-205z" unicode="$"/><glyph d="M0 0v205h205v-205h-205zM0 1024v410h205v-410h-205zM205 205v409h205v-409h-205zM410 614v205h204v-205h-204zM614 819v410h205v-410h-205zM819 0v410h205v-410h-205zM819 1229v205h205v-205h-205z" unicode="%"/><glyph d="M0 205v409h205v-409h-205zM205 0v205h409v-205h-409zM205 614v205h205v205h204v-410h205v-409h-205v205h-204v204h-205zM205 1024v205h205v-205h-205zM410 1229v205h204v-205h-204zM614 1024v205h205v-205h-205zM819 0v205h205v-205h-205zM819 614v205h205v-205h-205z" unicode="&amp;"/><glyph d="M0 819v205h205v-205h-205zM205 1024v410h205v-410h-205z" horiz-adv-x="614" unicode="'"/><glyph d="M0 410v614h205v-614h-205zM205 205v205h205v-205h-205zM205 1024v205h205v-205h-205zM410 0v205h409v-205h-409zM410 1229v205h409v-205h-409z" horiz-adv-x="1024" unicode="("/><glyph d="M0 0v205h410v-205h-410zM0 1229v205h410v-205h-410zM410 205v205h204v-205h-204zM410 1024v205h204v-205h-204zM614 410v614h205v-614h-205z" horiz-adv-x="1024" unicode=")"/><glyph d="M0 410v204h205v-204h-205zM0 819v205h205v-205h-205zM205 614v205h409v-205h-409zM614 410v204h205v-204h-205zM614 819v205h205v-205h-205z" horiz-adv-x="1024" unicode="*"/><glyph d="M0 614v205h410v410h204v-410h410v-205h-410v-409h-204v409h-410z" unicode="+"/><glyph d="M0 -205v615h205v-615h-205z" horiz-adv-x="409" unicode=","/><glyph d="M0 614v205h1024v-205h-1024z" unicode="-"/><glyph d="M0 0v410h205v-410h-205z" horiz-adv-x="409" unicode="."/><glyph d="M0 0v205h205v-205h-205zM205 205v409h205v-409h-205zM410 614v205h204v-205h-204zM614 819v410h205v-410h-205zM819 1229v205h205v-205h-205z" unicode="/"/><glyph d="M0 205v1024h205v-615h205v-204h-205v-205h-205zM205 0v205h614v-205h-614zM205 1229v205h614v-205h-614zM410 614v205h204v-205h-204zM614 819v205h205v205h205v-1024h-205v614h-205z" unicode="0"/><glyph d="M0 0v205h410v819h-205v205h205v205h204v-1229h410v-205h-1024z" unicode="1"/><glyph d="M0 0v410h205v-205h614v205h205v-410h-1024zM0 1024v205h205v-205h-205zM205 410v204h205v-204h-205zM205 1229v205h614v-205h-614zM410 614v205h409v-205h-409zM819 819v410h205v-410h-205z" unicode="2"/><glyph d="M0 205v205h205v-205h-205zM0 1024v205h205v-205h-205zM205 0v205h614v-205h-614zM205 1229v205h614v-205h-614zM410 614v205h409v-205h-409zM819 205v409h205v-409h-205zM819 819v410h205v-410h-205z" unicode="3"/><glyph d="M0 410v409h205v-205h614v615h-205v205h410v-1434h-205v410h-819zM205 819v205h205v-205h-205zM410 1024v205h204v-205h-204z" unicode="4"/><glyph d="M0 205v205h205v-205h-205zM0 819v615h1024v-205h-819v-205h614v-205h-819zM205 0v205h614v-205h-614zM819 205v614h205v-614h-205z" unicode="5"/><glyph d="M0 205v819h205v-205h614v-205h-614v-409h-205zM205 0v205h614v-205h-614zM205 1024v205h205v-205h-205zM410 1229v205h409v-205h-409zM819 205v409h205v-409h-205z" unicode="6"/><glyph d="M0 1024v410h1024v-615h-205v410h-614v-205h-205zM410 0v614h204v-614h-204zM614 614v205h205v-205h-205z" unicode="7"/><glyph d="M0 205v409h205v-409h-205zM0 819v410h205v-410h-205zM205 0v205h614v-205h-614zM205 614v205h614v-205h-614zM205 1229v205h614v-205h-614zM819 205v409h205v-409h-205zM819 819v410h205v-410h-205z" unicode="8"/><glyph d="M0 819v410h205v-410h-205zM205 0v205h409v-205h-409zM205 614v205h614v410h205v-819h-205v204h-614zM205 1229v205h614v-205h-614zM614 205v205h205v-205h-205z" unicode="9"/><glyph d="M0 0v410h205v-410h-205zM0 819v410h205v-410h-205z" horiz-adv-x="409" unicode=":"/><glyph d="M0 -205v615h205v-615h-205zM0 819v410h205v-410h-205z" horiz-adv-x="409" unicode=";"/><glyph d="M0 614v205h205v-205h-205zM205 410v204h205v-204h-205zM205 819v205h205v-205h-205zM410 205v205h204v-205h-204zM410 1024v205h204v-205h-204zM614 0v205h205v-205h-205zM614 1229v205h205v-205h-205z" horiz-adv-x="1024" unicode="&lt;"/><glyph d="M0 205v205h1024v-205h-1024zM0 819v205h1024v-205h-1024z" unicode="="/><glyph d="M0 0v205h205v-205h-205zM0 1229v205h205v-205h-205zM205 205v205h205v-205h-205zM205 1024v205h205v-205h-205zM410 410v204h204v-204h-204zM410 819v205h204v-205h-204zM614 614v205h205v-205h-205z" horiz-adv-x="1024" unicode="&gt;"/><glyph d="M0 1024v205h205v-205h-205zM205 1229v205h614v-205h-614zM410 0v205h204v-205h-204zM410 410v204h204v-204h-204zM614 614v205h205v-205h-205zM819 819v410h205v-410h-205z" unicode="?"/><glyph d="M0 205v1024h205v-1024h-205zM205 0v205h819v-205h-819zM205 1229v205h819v-205h-819zM410 410v614h409v-410h205v615h205v-819h-819z" horiz-adv-x="1433" unicode="@"/><glyph d="M0 0v1229h205v-205h614v205h205v-1229h-205v819h-614v-819h-205zM205 1229v205h614v-205h-614z" unicode="A"/><glyph d="M0 0v1434h819v-205h-614v-205h614v-205h-614v-614h614v-205h-819zM819 205v614h205v-614h-205zM819 1024v205h205v-205h-205z" unicode="B"/><glyph d="M0 205v1024h205v-1024h-205zM205 0v205h614v-205h-614zM205 1229v205h614v-205h-614zM819 205v205h205v-205h-205zM819 1024v205h205v-205h-205z" unicode="C"/><glyph d="M0 0v1434h819v-205h-614v-1024h614v-205h-819zM819 205v1024h205v-1024h-205z" unicode="D"/><glyph d="M0 0v1434h1024v-205h-819v-205h409v-205h-409v-614h819v-205h-1024z" unicode="E"/><glyph d="M0 0v1434h1024v-205h-819v-205h409v-205h-409v-819h-205z" unicode="F"/><glyph d="M0 205v1024h205v-1024h-205zM205 0v205h614v-205h-614zM205 1229v205h819v-205h-819zM614 819v205h410v-819h-205v614h-205z" unicode="G"/><glyph d="M0 0v1434h205v-410h614v410h205v-1434h-205v819h-614v-819h-205z" unicode="H"/><glyph d="M0 0v205h205v1024h-205v205h614v-205h-204v-1024h204v-205h-614z" horiz-adv-x="819" unicode="I"/><glyph d="M0 205v205h205v-205h-205zM205 0v205h614v-205h-614zM819 205v1229h205v-1229h-205z" unicode="J"/><glyph d="M0 0v1434h205v-410h409v-205h-409v-819h-205zM614 614v205h205v-205h-205zM614 1024v205h205v-205h-205zM819 0v614h205v-614h-205zM819 1229v205h205v-205h-205z" unicode="K"/><glyph d="M0 0v1434h205v-1229h819v-205h-1024z" unicode="L"/><glyph d="M0 0v1434h205v-205h205v-205h-205v-1024h-205zM410 819v205h204v-205h-204zM614 1024v205h205v205h205v-1434h-205v1024h-205z" unicode="M"/><glyph d="M0 0v1434h205v-205h205v-205h-205v-1024h-205zM410 819v205h204v-205h-204zM614 614v205h205v615h205v-1434h-205v614h-205z" unicode="N"/><glyph d="M0 205v1024h205v-1024h-205zM205 0v205h614v-205h-614zM205 1229v205h614v-205h-614zM819 205v1024h205v-1024h-205z" unicode="O"/><glyph d="M0 0v1434h819v-205h-614v-205h614v-205h-614v-819h-205zM819 1024v205h205v-205h-205z" unicode="P"/><glyph d="M0 205v1024h205v-1024h-205zM205 0v205h409v-205h-409zM205 1229v205h614v-205h-614zM614 205v205h205v-205h-205zM819 0v205h205v-205h-205zM819 410v819h205v-819h-205z" unicode="Q"/><glyph d="M0 0v1434h819v-205h-614v-205h614v-205h-614v-819h-205zM819 0v819h205v-819h-205zM819 1024v205h205v-205h-205z" unicode="R"/><glyph d="M0 205v205h205v-205h-205zM0 1024v205h205v-205h-205zM205 0v205h614v-205h-614zM205 819v205h614v-205h-614zM205 1229v205h819v-205h-819zM819 205v614h205v-614h-205z" unicode="S"/><glyph d="M0 1229v205h1024v-205h-410v-1229h-204v1229h-410z" unicode="T"/><glyph d="M0 205v1229h205v-1229h-205zM205 0v205h614v-205h-614zM819 205v1229h205v-1229h-205z" unicode="U"/><glyph d="M0 614v820h205v-820h-205zM205 205v409h205v-409h-205zM410 0v205h204v-205h-204zM614 205v409h205v-409h-205zM819 614v820h205v-820h-205z" unicode="V"/><glyph d="M0 0v1434h205v-1024h205v-205h-205v-205h-205zM410 410v204h204v-204h-204zM614 205v205h205v1024h205v-1434h-205v205h-205z" unicode="W"/><glyph d="M0 0v614h205v-614h-205zM0 1229v205h205v-205h-205zM205 614v205h205v-205h-205zM205 1024v205h205v-205h-205zM410 819v205h204v-205h-204zM614 614v205h205v-205h-205zM614 1024v205h205v-205h-205zM819 0v614h205v-614h-205zM819 1229v205h205v-205h-205z" unicode="X"/><glyph d="M0 1229v205h205v-205h-205zM205 1024v205h205v-205h-205zM410 0v1024h204v-1024h-204zM614 1024v205h205v-205h-205zM819 1229v205h205v-205h-205z" unicode="Y"/><glyph d="M0 0v410h205v-205h819v-205h-1024zM0 1229v205h1024v-410h-205v205h-819zM205 410v204h205v-204h-205zM410 614v205h204v-205h-204zM614 819v205h205v-205h-205z" unicode="Z"/><glyph d="M0 0v1434h614v-205h-409v-1024h409v-205h-614z" horiz-adv-x="819" unicode="["/><glyph d="M0 1229v205h205v-205h-205zM205 819v410h205v-410h-205zM410 614v205h204v-205h-204zM614 205v409h205v-409h-205zM819 0v205h205v-205h-205z" unicode="\"/><glyph d="M0 0v205h410v1024h-410v205h614v-1434h-614z" horiz-adv-x="819" unicode="]"/><glyph d="M0 819v205h205v-205h-205zM205 1024v205h205v-205h-205zM410 1229v205h204v-205h-204zM614 1024v205h205v-205h-205zM819 819v205h205v-205h-205z" unicode="^"/><glyph d="M0 0h1024v-205h-1024v205z" unicode="_"/><glyph d="M0 205v205h205v-205h-205zM205 0v205h614v205h-614v204h614v205h205v-819h-819zM205 819v205h614v-205h-614z" unicode="a"/><glyph d="M0 0v1434h205v-615h205v-205h-205v-409h614v-205h-819zM410 819v205h409v-205h-409zM819 205v614h205v-614h-205z" unicode="b"/><glyph d="M0 205v614h205v-614h-205zM205 0v205h614v-205h-614zM205 819v205h614v-205h-614zM819 205v205h205v-205h-205zM819 614v205h205v-205h-205z" unicode="c"/><glyph d="M0 205v614h205v-614h-205zM205 0v205h614v409h-205v205h205v615h205v-1434h-819zM205 819v205h409v-205h-409z" unicode="d"/><glyph d="M0 205v614h205v-205h614v205h205v-409h-819v-205h-205zM205 0v205h819v-205h-819zM205 819v205h614v-205h-614z" unicode="e"/><glyph d="M0 819v205h205v205h205v-205h409v-205h-409v-819h-205v819h-205zM410 1229v205h409v-205h-409z" horiz-adv-x="1024" unicode="f"/><glyph d="M0 0h819v-205h-819v205zM0 410v409h205v-409h-205zM205 205v205h614v409h-614v205h819v-1024h-205v205h-614z" unicode="g"/><glyph d="M0 0v1434h205v-615h205v-205h-205v-614h-205zM410 819v205h409v-205h-409zM819 0v819h205v-819h-205z" unicode="h"/><glyph d="M0 0v1024h205v-1024h-205zM0 1229v205h205v-205h-205z" horiz-adv-x="409" unicode="i"/><glyph d="M0 0v205h205v-205h-205zM205 0h614v-205h-614v205zM819 0v1024h205v-1024h-205zM819 1229v205h205v-205h-205z" unicode="j"/><glyph d="M0 0v1434h205v-820h205v-204h-205v-410h-205zM410 205v205h204v-205h-204zM410 614v205h204v-205h-204zM614 0v205h205v-205h-205zM614 819v205h205v-205h-205z" horiz-adv-x="1024" unicode="k"/><glyph d="M0 205v1229h205v-1229h-205zM205 0v205h205v-205h-205z" horiz-adv-x="614" unicode="l"/><glyph d="M0 0v1024h410v-205h-205v-819h-205zM410 410v409h204v-409h-204zM614 819v205h205v-205h-205zM819 0v819h205v-819h-205z" unicode="m"/><glyph d="M0 0v1024h819v-205h-614v-819h-205zM819 0v819h205v-819h-205z" unicode="n"/><glyph d="M0 205v614h205v-614h-205zM205 0v205h614v-205h-614zM205 819v205h614v-205h-614zM819 205v614h205v-614h-205z" unicode="o"/><glyph d="M0 -205v1229h205v-205h205v-205h-205v-204h614v-205h-614v-410h-205zM410 819v205h409v-205h-409zM819 410v409h205v-409h-205z" unicode="p"/><glyph d="M0 410v409h205v-409h-205zM205 205v205h614v204h-205v205h205v205h205v-1229h-205v410h-614zM205 819v205h409v-205h-409z" unicode="q"/><glyph d="M0 0v1024h205v-205h205v-205h-205v-614h-205zM410 819v205h409v-205h-409zM819 614v205h205v-205h-205z" unicode="r"/><glyph d="M0 0v205h819v-205h-819zM0 614v205h205v-205h-205zM205 410v204h614v-204h-614zM205 819v205h819v-205h-819zM819 205v205h205v-205h-205z" unicode="s"/><glyph d="M0 819v205h205v410h205v-410h204v-205h-204v-614h-205v614h-205zM410 0v205h204v-205h-204z" horiz-adv-x="819" unicode="t"/><glyph d="M0 205v819h205v-819h-205zM205 0v205h614v819h205v-1024h-819z" unicode="u"/><glyph d="M0 410v614h205v-614h-205zM205 205v205h205v-205h-205zM410 0v205h204v-205h-204zM614 205v205h205v-205h-205zM819 410v614h205v-614h-205z" unicode="v"/><glyph d="M0 205v819h205v-819h-205zM205 0v205h205v409h204v-409h205v819h205v-1024h-819z" unicode="w"/><glyph d="M0 0v205h205v-205h-205zM0 819v205h205v-205h-205zM205 205v205h205v-205h-205zM205 614v205h205v-205h-205zM410 410v204h204v-204h-204zM614 205v205h205v-205h-205zM614 614v205h205v-205h-205zM819 0v205h205v-205h-205zM819 819v205h205v-205h-205z" unicode="x"/><glyph d="M0 0h819v-205h-819v205zM0 410v614h205v-614h-205zM205 205v205h614v614h205v-1024h-205v205h-614z" unicode="y"/><glyph d="M0 0v205h205v205h205v-205h614v-205h-1024zM0 819v205h1024v-205h-205v-205h-205v205h-614zM410 410v204h204v-204h-204z" unicode="z"/><glyph d="M0 614v205h205v-205h-205zM205 205v409h205v-409h-205zM205 819v410h205v-410h-205zM410 0v205h409v-205h-409zM410 1229v205h409v-205h-409z" horiz-adv-x="1024" unicode="{"/><glyph d="M0 0v614h205v-614h-205zM0 819v615h205v-615h-205z" horiz-adv-x="409" unicode="|"/><glyph d="M0 0v205h410v-205h-410zM0 1229v205h410v-205h-410zM410 205v409h204v-409h-204zM410 819v410h204v-410h-204zM614 614v205h205v-205h-205z" horiz-adv-x="1024" unicode="}"/><glyph d="M0 1024v205h205v-205h-205zM205 1229v205h409v-205h-409zM614 1024v205h410v-205h-410zM1024 1229v205h205v-205h-205z" horiz-adv-x="1433" unicode="~"/><glyph d="M0 0v819h205v-819h-205zM0 1024v205h205v-205h-205z" horiz-adv-x="409" unicode="¡"/><glyph d="M0 410v204h205v-204h-205zM205 205v205h614v-205h-205v-205h-204v205h-205zM205 614v205h205v205h204v-205h205v-205h-614z" horiz-adv-x="1024" unicode="¢"/><glyph d="M0 0v205h205v409h-205v205h205v410h205v-410h409v-205h-409v-409h614v-205h-1024zM410 1229v205h409v-205h-409zM819 1024v205h205v-205h-205z" unicode="£"/><glyph d="M0 410v204h205v-204h-205zM0 819v205h205v-205h-205zM205 614v205h205v-205h-205zM410 410v204h204v-204h-204zM410 819v205h204v-205h-204z" horiz-adv-x="819" unicode="¤"/><glyph d="M0 0v205h819v-205h-819zM0 614v205h205v-205h-205zM0 1024v205h205v-205h-205zM205 410v204h614v-204h-614zM205 819v205h614v-205h-614zM205 1229v205h819v-205h-819zM819 205v205h205v-205h-205zM819 614v205h205v-205h-205z" unicode="§"/><glyph d="M0 410v204h205v-204h-205zM205 205v205h205v-205h-205zM205 614v205h205v-205h-205zM410 0v205h204v-205h-204zM410 410v204h204v-204h-204zM410 819v205h204v-205h-204zM614 205v205h205v-205h-205zM614 614v205h205v-205h-205zM819 0v205h205v-205h-205zM819 819v205 h205v-205h-205z" unicode="«"/><glyph d="M0 410v204h1024v-409h-205v205h-819z" unicode="¬"/><glyph d="M0 614v205h410v-205h-410z" horiz-adv-x="614" unicode="­"/><glyph d="M0 205v614h205v-409h205v-205h204v205h205v-205h205v-205h-819v205h-205zM205 819v205h819v-205h-205v-205h-205v-204h-204v409h-205zM1024 205v614h205v-614h-205z" horiz-adv-x="1433" unicode="®"/><glyph d="M0 0v205h1024v-205h-1024zM0 819v205h410v410h204v-410h410v-205h-410v-409h-204v409h-410z" unicode="±"/><glyph d="M0 819v410h205v-410h-205zM205 614v205h409v410h-409v205h1024v-1434h-205v1229h-205v-1229h-205v614h-409z" horiz-adv-x="1433" unicode="¶"/><glyph d="M0 410v409h410v-409h-410z" horiz-adv-x="614" unicode="·"/><glyph d="M0 -205h410v-205h-410v205zM410 0h204v-205h-204v205z" horiz-adv-x="819" unicode="¸"/><glyph d="M0 0v205h205v-205h-205zM0 819v205h205v-205h-205zM205 205v205h205v-205h-205zM205 614v205h205v-205h-205zM410 0v205h204v-205h-204zM410 410v204h204v-204h-204zM410 819v205h204v-205h-204zM614 205v205h205v-205h-205zM614 614v205h205v-205h-205zM819 410v204h205 v-204h-205z" unicode="»"/><glyph d="M0 205v409h205v-409h-205zM205 0v205h614v-205h-614zM205 614v205h205v-205h-205zM410 819v205h204v-205h-204zM410 1229v205h204v-205h-204zM819 205v205h205v-205h-205z" unicode="¿"/><glyph d="M0 0v1024h205v-205h614v205h205v-1024h-205v614h-614v-614h-205zM0 1229v205h205v-205h-205zM205 1024v205h614v-205h-614zM819 1229v205h205v-205h-205z" unicode="Ä"/><glyph d="M0 0v819h205v-205h614v205h205v-819h-205v410h-614v-410h-205zM205 819v205h614v-205h-614zM410 1229v205h204v-205h-204z" unicode="Å"/><glyph d="M0 0v1229h205v-205h205v205h-205v205h819v-205h-410v-205h205v-205h-205v-614h410v-205h-614v819h-205v-819h-205z" unicode="Æ"/><glyph d="M0 205v1024h205v-1024h-205zM205 0v205h614v-205h-614zM205 1229v205h614v-205h-614zM410 -205h409v-205h-409v205zM819 0h205v-205h-205v205zM819 205v205h205v-205h-205zM819 1024v205h205v-205h-205z" unicode="Ç"/><glyph d="M0 0v1024h205v-205h205v-205h-205v-614h-205zM0 1229v205h1024v-205h-1024zM410 410v204h204v-204h-204zM614 205v205h205v614h205v-1024h-205v205h-205z" unicode="Ñ"/><glyph d="M0 205v1024h205v-615h205v-204h-205v-205h-205zM205 0v205h614v-205h-614zM205 1229v205h614v-205h-614zM410 614v205h204v-205h-204zM614 819v205h205v205h205v-1024h-205v614h-205z" unicode="Ø"/><glyph d="M0 205v819h205v-819h-205zM0 1229v205h205v-205h-205zM205 0v205h614v-205h-614zM819 205v819h205v-819h-205zM819 1229v205h205v-205h-205z" unicode="Ü"/><glyph d="M0 205v205h205v-205h-205zM0 1229v205h410v-205h-410zM205 0v205h614v205h-614v204h614v205h205v-819h-819zM205 819v205h614v-205h-614z" unicode="à"/><glyph d="M0 205v205h205v-205h-205zM205 0v205h614v205h-614v204h614v205h205v-819h-819zM205 819v205h614v-205h-614zM614 1229v205h410v-205h-410z" unicode="á"/><glyph d="M0 205v205h205v-205h-205zM0 1024v205h205v-205h-205zM205 0v205h614v205h-614v204h614v205h205v-819h-819zM205 819v205h614v-205h-614zM205 1229v205h614v-205h-614zM819 1024v205h205v-205h-205z" unicode="â"/><glyph d="M0 205v205h205v-205h-205zM205 0v205h614v205h-614v204h614v205h205v-819h-819zM205 819v205h614v-205h-614zM410 1229v205h204v-205h-204z" unicode="å"/><glyph d="M0 205v205h205v-205h-205zM205 0v205h205v205h-205v204h205v205h204v-205h205v-204h-205v-205h410v-205h-819zM205 819v205h205v-205h-205zM614 819v205h205v-205h-205zM819 614v205h205v-205h-205z" unicode="æ"/><glyph d="M0 205v614h205v-614h-205zM205 0v205h614v-205h-614zM205 819v205h614v-205h-614zM410 -205h409v-205h-409v205zM819 0h205v-205h-205v205zM819 205v205h205v-205h-205zM819 614v205h205v-205h-205z" unicode="ç"/><glyph d="M0 205v614h205v-205h614v205h205v-409h-819v-205h-205zM0 1024v205h205v-205h-205zM205 0v205h819v-205h-819zM205 819v205h614v-205h-614zM205 1229v205h614v-205h-614zM819 1024v205h205v-205h-205z" unicode="ê"/><glyph d="M0 205v614h205v-205h614v205h205v-409h-819v-205h-205zM205 0v205h819v-205h-819zM205 819v205h614v-205h-614zM205 1229v205h205v-205h-205zM614 1229v205h205v-205h-205z" unicode="ë"/><glyph d="M0 0v1024h205v-1024h-205zM0 1229v205h410v-205h-410z" horiz-adv-x="614" unicode="í"/><glyph d="M0 1229v205h205v-205h-205zM205 0v1024h205v-1024h-205zM410 1229v205h204v-205h-204z" horiz-adv-x="819" unicode="î"/><glyph d="M0 0v1024h819v-205h-614v-819h-205zM0 1229v205h1024v-205h-1024zM819 0v819h205v-819h-205z" unicode="ñ"/><glyph d="M0 205v614h205v-614h-205zM0 1229v205h410v-205h-410zM205 0v205h614v-205h-614zM205 819v205h614v-205h-614zM819 205v614h205v-614h-205z" unicode="ò"/><glyph d="M0 205v614h205v-614h-205zM205 0v205h614v-205h-614zM205 819v205h614v-205h-614zM614 1229v205h410v-205h-410zM819 205v614h205v-614h-205z" unicode="ó"/><glyph d="M0 205v614h205v-614h-205zM0 1024v205h205v-205h-205zM205 0v205h614v-205h-614zM205 819v205h614v-205h-614zM205 1229v205h614v-205h-614zM819 205v614h205v-614h-205zM819 1024v205h205v-205h-205z" unicode="ô"/><glyph d="M0 205v614h205v-614h-205zM205 0v205h614v-205h-614zM205 819v205h614v-205h-614zM205 1229v205h205v-205h-205zM614 1229v205h205v-205h-205zM819 205v614h205v-614h-205z" unicode="ö"/><glyph d="M0 614v205h1024v-205h-1024zM410 205v205h204v-205h-204zM410 1024v205h204v-205h-204z" unicode="÷"/><glyph d="M0 205v614h205v-409h205v-205h409v-205h-205v-205h-204v205h-205v205h-205zM205 819v205h614v-205h205v-614h-205v409h-205v205h-409zM410 410v204h204v-204h-204z" unicode="ø"/><glyph d="M0 205v819h205v-819h-205zM0 1229v205h410v-205h-410zM205 0v205h614v819h205v-1024h-819z" unicode="ù"/><glyph d="M0 205v819h205v-819h-205zM205 0v205h614v819h205v-1024h-819zM614 1229v205h410v-205h-410z" unicode="ú"/><glyph d="M0 205v614h205v-614h-205zM0 1024v205h205v-205h-205zM205 0v205h614v614h205v-819h-819zM205 1229v205h614v-205h-614zM819 1024v205h205v-205h-205z" unicode="û"/><glyph d="M0 205v819h205v-819h-205zM205 0v205h614v819h205v-1024h-819zM205 1229v205h205v-205h-205zM614 1229v205h205v-205h-205z" unicode="ü"/><glyph d="M0 0h819v-205h-819v205zM0 410v614h205v-614h-205zM205 205v205h614v614h205v-1024h-205v205h-614zM205 1229v205h205v-205h-205zM614 1229v205h205v-205h-205z" unicode="ÿ"/><glyph horiz-adv-x="717"/><glyph horiz-adv-x="1434"/><glyph horiz-adv-x="717"/><glyph horiz-adv-x="1434"/><glyph horiz-adv-x="478"/><glyph horiz-adv-x="358"/><glyph horiz-adv-x="239"/><glyph horiz-adv-x="239"/><glyph horiz-adv-x="179"/><glyph horiz-adv-x="286"/><glyph horiz-adv-x="79"/><glyph d="M0 614v205h1024v-205h-1024z" unicode="‐"/><glyph d="M0 614v205h1024v-205h-1024z" unicode="‑"/><glyph d="M0 614v205h1024v-205h-1024z" unicode="‒"/><glyph d="M0 614v205h1024v-205h-1024z" unicode="–"/><glyph d="M0 614v205h1024v-205h-1024z" unicode="—"/><glyph d="M0 410v409h410v-409h-410z" horiz-adv-x="614" unicode="•"/><glyph horiz-adv-x="286"/><glyph horiz-adv-x="358"/><glyph d="M0 0v1024h1024v-1024h-1024z" horiz-adv-x="1024" unicode="◼"/></font>
</defs>
</svg>
